<svg id="Layer_1" enable-background="new 0 0 64 64" height="512" viewBox="0 0 64 64" width="512" xmlns="http://www.w3.org/2000/svg"><g><path d="m8.382 46.01v5.483c3.087-.534 6.088-.804 8.936-.804 4.815 0 9.39.774 13.623 2.304v-5.421c-5.904-2.694-13.388-3.217-22.559-1.562z"/><path d="m31.922 28.244c.026 0 .052-.003.078-.003.025 0 .048.003.073.004 5.305-.04 9.609-4.364 9.609-9.679 0-5.339-4.343-9.682-9.682-9.682s-9.682 4.343-9.682 9.682c0 5.312 4.301 9.636 9.604 9.678z"/><path d="m33.06 47.572v5.421c6.736-2.434 14.251-2.936 22.559-1.5v-5.483c-9.171-1.655-16.656-1.132-22.559 1.562z"/><path d="m49.944 43.125c-.928-2.691-2.463-5.157-4.505-7.199-3.571-3.571-8.316-5.543-13.366-5.562-.025 0-.048.004-.073.004-.026 0-.052-.004-.078-.004-8.102.033-15.231 5.199-17.855 12.759 7.012-.572 12.977.303 17.933 2.614 4.958-2.312 10.927-3.186 17.944-2.612z"/></g></svg>