<svg id="Layer_1" enable-background="new 0 0 100 100" viewBox="0 0 100 100" xmlns="http://www.w3.org/2000/svg"><g fill="#040000"><ellipse cx="52.1" cy="28.4" rx="21.4" ry="22.4"/><path d="m92.6 84c0-.2-.1-.4-.1-.6-.3-1.4-1-2.6-1.9-3.6-1.1-1.1-2.4-2-4-2.4-.6-.2-1.3-.3-2-.3-4.5 0-8.2 3.7-8.2 8.2s3.7 8.2 8.2 8.2 8.2-3.7 8.2-8.2c0-.4-.1-.8-.2-1.3z"/><path d="m25.9 77.2c0-4.5-3.7-8.2-8.2-8.2-.3 0-.6 0-.9 0-.1 0-.1 0-.2 0-.2 0-.4.1-.6.1-.1 0-.1 0-.2.1-.2 0-.4.1-.6.2-.1 0-.1 0-.1.1-.2.1-.4.2-.6.2h-.1c-.2.1-.4.2-.7.3-.2.1-.4.3-.7.4-.4.3-.9.7-1.2 1.1-1.4 1.5-2.2 3.4-2.2 5.6 0 4.5 3.7 8.2 8.2 8.2s8.1-3.6 8.1-8.1z"/><path d="m95 78.9c-2.5-20.1-28.6-26.6-31.7-27.3l-10.9 8.6-10.9-8.6c-2.3.5-16.9 4.1-25.5 13.9l-7.3-25.7-3.7 1 7.5 26.8c1.5-.8 3.3-1.3 5.2-1.3 6 0 10.9 4.9 10.9 10.9 0 5.5-4.1 10-9.3 10.8 4.5 1.9 10.7 3.8 18.9 4.9v-26s13.5 0 22.8 6.1l.1 21h2.7l-.1-21c9.3-6.1 22.8-6.1 22.8-6.1v7.8c3.7.7 6.7 3.2 8.1 6.6.4-.8.5-1.6.4-2.4z"/></g></svg>